<?xml version="1.0" standalone="no"?>
<!DOCTYPE svg PUBLIC "-//W3C//DTD SVG 20010904//EN"
 "http://www.w3.org/TR/2001/REC-SVG-20010904/DTD/svg10.dtd">
<svg version="1.0" xmlns="http://www.w3.org/2000/svg"
 width="1080.000000pt" height="1080.000000pt" viewBox="0 0 1080.000000 1080.000000"
 preserveAspectRatio="xMidYMid meet">
<metadata>
Created by potrace 1.13, written by Peter Selinger 2001-2015
</metadata>
<g transform="translate(0.000000,1080.000000) scale(0.100000,-0.100000)"
fill="#FFFFFF" stroke="none">
<path d="M8988 9807 c-178 -144 -424 -330 -608 -459 -132 -92 -367 -248 -375
-248 -2 0 -39 -22 -82 -49 -149 -93 -495 -275 -683 -360 -41 -19 -102 -47
-135 -62 -493 -223 -1170 -460 -1915 -669 -36 -10 -99 -28 -140 -40 -41 -12
-94 -26 -117 -31 -51 -13 -63 17 100 -254 66 -109 131 -220 145 -245 14 -25
36 -62 49 -82 12 -21 23 -40 23 -43 0 -2 16 -29 35 -59 19 -30 35 -57 35 -60
0 -3 13 -27 28 -53 88 -150 282 -514 384 -723 91 -186 168 -349 168 -355 0 -2
15 -36 34 -77 88 -187 269 -680 360 -978 16 -52 82 -294 106 -387 6 -24 13
-43 16 -43 3 0 19 9 35 21 16 11 59 34 96 50 90 40 151 72 253 134 47 28 135
78 195 110 61 32 131 73 157 91 26 18 89 53 140 78 84 41 170 100 284 193 21
18 104 80 184 139 80 58 177 133 216 167 39 34 105 88 146 119 80 62 143 130
257 277 94 121 102 135 146 264 l36 109 9 287 c10 311 8 360 -17 556 -21 158
-22 373 -5 679 13 244 20 309 53 481 45 240 71 341 155 595 19 58 45 146 58
195 61 229 92 319 210 595 42 96 67 201 49 199 -5 0 -43 -28 -85 -62z"/>
<path d="M4083 8668 c-287 -96 -423 -146 -423 -155 0 -8 25 -87 56 -176 30
-89 71 -209 90 -267 19 -58 39 -114 44 -125 8 -19 75 -215 227 -665 36 -107
69 -198 72 -202 3 -4 51 54 106 128 162 218 333 448 342 459 5 6 19 26 33 45
13 19 27 37 30 40 3 3 31 41 63 86 56 81 56 81 129 103 40 12 84 26 98 31 14
4 59 18 100 30 41 12 90 27 108 34 l32 12 -32 36 c-18 19 -82 91 -143 159 -60
67 -137 152 -170 189 -34 36 -76 83 -94 105 -30 36 -137 155 -216 242 l-30 33
-422 -142z"/>
<path d="M4804 7797 c-18 -23 -60 -78 -94 -122 -34 -44 -79 -102 -100 -130
-21 -27 -68 -88 -105 -135 -36 -47 -98 -128 -137 -180 -39 -52 -74 -97 -77
-100 -4 -3 -31 -36 -61 -75 -29 -38 -56 -73 -60 -78 -3 -4 -73 4 -156 18 -165
27 -252 41 -349 55 -36 6 -93 14 -127 19 -133 20 -335 47 -453 61 -307 35
-430 47 -615 60 -323 21 -509 30 -623 30 l-117 0 17 -27 c10 -16 38 -55 63
-88 25 -33 56 -76 70 -95 13 -19 81 -114 150 -210 69 -96 133 -186 142 -200
10 -14 32 -45 49 -70 152 -216 363 -531 485 -725 104 -165 324 -531 324 -539
0 -4 11 -24 25 -45 13 -22 45 -79 71 -128 26 -48 66 -122 88 -163 44 -79 406
-805 406 -814 0 -3 25 -57 55 -121 30 -65 55 -119 55 -121 0 -2 20 -46 45 -98
25 -53 45 -98 45 -100 0 -3 13 -33 30 -68 32 -70 68 -151 201 -463 50 -115 99
-229 109 -252 11 -24 20 -45 20 -48 0 -2 11 -28 24 -57 13 -29 38 -87 56 -128
18 -41 36 -79 40 -83 8 -9 87 83 216 254 132 176 248 372 378 643 42 86 76
159 76 161 0 1 18 42 40 89 36 74 43 84 61 78 33 -13 241 -288 321 -427 156
-267 300 -644 418 -1090 37 -140 161 -631 170 -675 5 -25 19 -83 30 -130 25
-104 95 -413 122 -535 11 -49 28 -130 39 -180 11 -49 23 -105 26 -123 10 -59
19 -33 73 223 19 93 26 123 51 230 39 170 122 631 149 830 5 39 13 91 18 117
5 26 7 49 5 51 -2 3 3 47 11 98 30 194 40 385 40 749 0 242 -5 402 -14 475 -7
61 -13 119 -12 130 1 11 -3 45 -8 76 -6 31 -12 78 -15 105 -2 27 -9 77 -15
112 -5 34 -15 92 -21 130 -18 118 -43 245 -79 407 -44 195 -90 373 -151 580
-51 175 -175 532 -215 622 -8 17 -14 35 -14 40 -1 4 -9 26 -20 48 -11 22 -19
44 -20 48 0 5 -11 33 -25 63 -14 30 -25 57 -25 60 0 5 -73 167 -140 309 -93
198 -298 600 -359 703 -17 29 -31 56 -31 59 0 3 -37 69 -82 147 -44 77 -92
161 -106 186 -14 25 -36 62 -49 82 -12 21 -23 40 -23 44 0 3 -8 18 -19 32 -10
15 -28 44 -40 66 -36 63 -213 360 -220 368 -3 3 -20 -13 -37 -35z"/>
</g>
</svg>
